# xmcd CD database file
#
# Track frame offsets:
#	150
#	13472
#	28331
#	41149
#	54565
#	69883
#	83057
#	96601
#	110016
#	123456
#	135718
#	149276
#	164802
#	178391
#	191565
#	205187
#	224250
#	239508
#	251921
#	263694
#
# Disc length: 3704 seconds
#
# Revision: 0
# Processed by: cddbd v1.5.1PL0 Copyright (c) Steve Scherf et al.
# Submitted via: CDex 1.51
#
DISCID=430e7614
DTITLE=THE GRATEST JAZZ - (7) 'Round Midnight
DYEAR=2002
DGENRE=Jazz
TTITLE0=On the Sunny Side of the Street
TTITLE1=Mona Lisa
TTITLE2=Baby Won't You Please Come Home
TTITLE3=Boplicity
TTITLE4=Exodus
TTITLE5=All the Cats Join in
TTITLE6=Blue Velvet
TTITLE7=Midnight Symphony
TTITLE8=Finger Buster
TTITLE9=Can't Help Lovin' Dat Man
TTITLE10=Rhapsody in Blue
TTITLE11=Solitude
TTITLE12=I Surrender Dear
TTITLE13=Ko-Ko
TTITLE14=Body and Soul
TTITLE15=The Masquerade Is Over
TTITLE16=Summertime
TTITLE17=I'm Grad for Your Sake
TTITLE18=Shoo Fly Pie and Apple Pan Dowdy
TTITLE19='Round Midnight
EXTD=YEAR: 2002
EXTT0=
EXTT1=
EXTT2=
EXTT3=
EXTT4=
EXTT5=
EXTT6=
EXTT7=
EXTT8=
EXTT9=
EXTT10=
EXTT11=
EXTT12=
EXTT13=
EXTT14=
EXTT15=
EXTT16=
EXTT17=
EXTT18=
EXTT19=
PLAYORDER=
